<svg xmlns="http://www.w3.org/2000/svg" width="64" height="64" viewBox="0 0 64 64" shape-rendering="crispEdges"><rect x="2" y="24" width="20" height="10" fill="#4a3a72"/><rect x="42" y="24" width="20" height="10" fill="#4a3a72"/><rect x="6" y="34" width="14" height="6" fill="#3b2e5c"/><rect x="44" y="34" width="14" height="6" fill="#3b2e5c"/><rect x="18" y="20" width="28" height="26" fill="#6b53a6"/><rect x="22" y="13" width="20" height="10" fill="#7d63bd"/><rect x="22" y="10" width="5" height="5" fill="#7d63bd"/><rect x="37" y="10" width="5" height="5" fill="#7d63bd"/><rect x="22" y="29" width="9" height="8" fill="#f2e9c9"/><rect x="33" y="29" width="9" height="8" fill="#f2e9c9"/><rect x="25" y="31" width="4" height="4" fill="#151b2c"/><rect x="36" y="31" width="4" height="4" fill="#151b2c"/><rect x="30" y="38" width="4" height="4" fill="#e0b85c"/><rect x="26" y="46" width="6" height="6" fill="#4a3a72"/><rect x="33" y="46" width="6" height="6" fill="#4a3a72"/></svg>
